<svg xmlns="http://www.w3.org/2000/svg" viewBox="0 0 520 360" fill="none" stroke="currentColor" stroke-width="1.15" stroke-linecap="round" stroke-linejoin="round">
  <!-- Generated by generators/city.mjs. Edit cityScene; run pnpm artwork:generate. -->
  <g class="survey-lines" opacity=".2" stroke-width=".65">
    <path d="M247.88 87L240.08 91.5 M128.36 156L21.84 217.5 M238.35 67.5L247.88 73 M332.75 122L550.12 247.5 M128.36 201L60.81 240 M199.38 90L210.64 96.5 M382.11 195.5L511.15 270 M164.74 225L99.79 262.5 M382.11 240.5L472.18 292.5 M368.25 152.5L349.2 163.5 M199.38 250L138.76 285 M121.44 135L128.36 139 M281.65 227.5L297.24 236.5 M377.78 283L433.21 315 M407.22 175L382.11 189.5 M297.24 238.5L281.65 247.5 M281.65 247.5L177.73 307.5 M82.46 157.5L128.36 184 M185.52 217L186.39 217.5 M260 260L394.23 337.5 M446.2 197.5L382.11 234.5 M305.9 278.5L216.7 330 M43.49 180L355.26 360 M485.17 220L382.11 279.5 M344.87 301L255.67 352.5 M4.52 202.5L316.29 382.5 M524.14 242.5L294.64 375 M-34.45 225L277.32 405" />
  </g>
  <g class="street" opacity=".55" stroke-width=".8">
    <path d="M97.19 204L322.35 334 M322.35 334L445.33 263 M91.99 207L322.35 340 M322.35 340L450.53 266" />
  </g>
  <g data-building="left">
    <path class="structure" d="M164.74 103L186.39 115.5 M186.39 136.5L168.2 147 M168.2 147L128.36 124 M128.36 124L164.74 103 M168.2 147L168.2 227 M128.36 124L128.36 204 M186.39 216.5L168.2 227 M168.2 227L128.36 204" />
    <path class="windows" opacity=".55" stroke-width=".65" d="M133.74 199.64L141.31 204.01 M141.31 204.01L141.31 192.81 M141.31 192.81L133.74 188.44 M133.74 188.44L133.74 199.64 M153.66 211.14L161.23 215.51 M161.23 215.51L161.23 204.31 M161.23 204.31L153.66 199.94 M153.66 199.94L153.66 211.14 M133.74 172.97L141.31 177.34 M141.31 177.34L141.31 166.14 M141.31 166.14L133.74 161.77 M133.74 161.77L133.74 172.97 M153.66 184.47L161.23 188.84 M161.23 188.84L161.23 177.64 M161.23 177.64L153.66 173.27 M153.66 173.27L153.66 184.47 M133.74 146.31L141.31 150.67 M141.31 150.67L141.31 139.47 M141.31 139.47L133.74 135.11 M133.74 135.11L133.74 146.31 M153.66 157.81L161.23 162.17 M161.23 162.17L161.23 150.97 M161.23 150.97L153.66 146.61 M153.66 146.61L153.66 157.81 M181.48 211.87L174.57 215.86 M174.57 215.86L174.57 204.66 M174.57 204.66L181.48 200.67 M181.48 200.67L181.48 211.87 M181.48 185.2L174.57 189.19 M174.57 189.19L174.57 177.99 M174.57 177.99L181.48 174 M181.48 174L181.48 185.2 M181.48 158.53L174.57 162.52 M174.57 162.52L174.57 151.32 M174.57 151.32L181.48 147.34 M181.48 147.34L181.48 158.53" />
  </g>
  <g data-building="background-tower">
    <path class="structure" d="M285.98 20L332.75 47 M332.75 47L294.64 69 M294.64 69L247.88 42 M247.88 42L285.98 20 M332.75 47L332.75 155 M294.64 69L294.64 234 M247.88 42L247.88 96 M297.24 232.5L294.64 234 M294.64 234L281.65 226.5" />
    <path class="windows" opacity=".55" stroke-width=".65" d="M281.65 219.9L286.46 222.68 M286.46 222.68L286.46 212.78 M286.46 212.78L281.65 210 M281.65 196.33L286.46 199.1 M286.46 199.1L286.46 189.2 M286.46 189.2L281.65 186.43 M281.65 172.76L286.46 175.53 M286.46 175.53L286.46 165.63 M286.46 165.63L281.65 162.86 M281.65 149.19L286.46 151.96 M286.46 151.96L286.46 142.06 M286.46 142.06L281.65 139.29 M281.65 125.61L286.46 128.39 M286.46 128.39L286.46 118.49 M286.46 118.49L281.65 115.71 M254.19 86.19L263.07 91.32 M263.07 91.32L263.07 81.42 M263.07 81.42L254.19 76.29 M254.19 76.29L254.19 86.19 M277.57 99.69L286.46 104.82 M286.46 104.82L286.46 94.92 M286.46 94.92L277.57 89.79 M277.57 89.79L277.57 99.69 M254.19 62.62L263.07 67.75 M263.07 67.75L263.07 57.85 M263.07 57.85L254.19 52.72 M254.19 52.72L254.19 62.62 M277.57 76.12L286.46 81.25 M286.46 81.25L286.46 71.35 M286.46 71.35L277.57 66.22 M277.57 66.22L277.57 76.12 M320.36 162.15L320.36 155.51 M320.36 155.51L327.6 151.33 M327.6 151.33L327.6 157.97 M301.31 173.15L301.31 166.51 M301.31 166.51L308.55 162.33 M308.55 162.33L308.55 168.97 M327.6 137.66L320.36 141.84 M320.36 141.84L320.36 131.94 M320.36 131.94L327.6 127.76 M327.6 127.76L327.6 137.66 M308.55 148.66L301.31 152.84 M301.31 152.84L301.31 142.94 M301.31 142.94L308.55 138.76 M308.55 138.76L308.55 148.66 M327.6 114.08L320.36 118.26 M320.36 118.26L320.36 108.36 M320.36 108.36L327.6 104.18 M327.6 104.18L327.6 114.08 M308.55 125.08L301.31 129.26 M301.31 129.26L301.31 119.36 M301.31 119.36L308.55 115.18 M308.55 115.18L308.55 125.08 M327.6 90.51L320.36 94.69 M320.36 94.69L320.36 84.79 M320.36 84.79L327.6 80.61 M327.6 80.61L327.6 90.51 M308.55 101.51L301.31 105.69 M301.31 105.69L301.31 95.79 M301.31 95.79L308.55 91.61 M308.55 91.61L308.55 101.51 M327.6 66.94L320.36 71.12 M320.36 71.12L320.36 61.22 M320.36 61.22L327.6 57.04 M327.6 57.04L327.6 66.94 M308.55 77.94L301.31 82.12 M301.31 82.12L301.31 72.22 M301.31 72.22L308.55 68.04 M308.55 68.04L308.55 77.94" />
  </g>
  <g data-building="center">
    <path class="structure" d="M229.69 85.5L281.65 115.5 M281.65 115.5L238.35 140.5 M238.35 140.5L186.39 110.5 M186.39 110.5L229.69 85.5 M281.65 115.5L281.65 247.5 M238.35 140.5L238.35 272.5 M186.39 110.5L186.39 242.5 M281.65 247.5L238.35 272.5 M238.35 272.5L186.39 242.5" />
    <path class="windows" opacity=".55" stroke-width=".65" d="M191.06 237.81L197.65 241.61 M197.65 241.61L197.65 230.52 M197.65 230.52L191.06 226.72 M191.06 226.72L191.06 237.81 M208.38 247.81L214.97 251.61 M214.97 251.61L214.97 240.52 M214.97 240.52L208.38 236.72 M208.38 236.72L208.38 247.81 M225.71 257.81L232.29 261.61 M232.29 261.61L232.29 250.52 M232.29 250.52L225.71 246.72 M225.71 246.72L225.71 257.81 M191.06 211.41L197.65 215.21 M197.65 215.21L197.65 204.12 M197.65 204.12L191.06 200.32 M191.06 200.32L191.06 211.41 M208.38 221.41L214.97 225.21 M214.97 225.21L214.97 214.12 M214.97 214.12L208.38 210.32 M208.38 210.32L208.38 221.41 M225.71 231.41L232.29 235.21 M232.29 235.21L232.29 224.12 M232.29 224.12L225.71 220.32 M225.71 220.32L225.71 231.41 M191.06 185.01L197.65 188.81 M197.65 188.81L197.65 177.72 M197.65 177.72L191.06 173.92 M191.06 173.92L191.06 185.01 M208.38 195.01L214.97 198.81 M214.97 198.81L214.97 187.72 M214.97 187.72L208.38 183.92 M208.38 183.92L208.38 195.01 M225.71 205.01L232.29 208.81 M232.29 208.81L232.29 197.72 M232.29 197.72L225.71 193.92 M225.71 193.92L225.71 205.01 M191.06 158.61L197.65 162.41 M197.65 162.41L197.65 151.32 M197.65 151.32L191.06 147.52 M191.06 147.52L191.06 158.61 M208.38 168.61L214.97 172.41 M214.97 172.41L214.97 161.32 M214.97 161.32L208.38 157.52 M208.38 157.52L208.38 168.61 M225.71 178.61L232.29 182.41 M232.29 182.41L232.29 171.32 M232.29 171.32L225.71 167.52 M225.71 167.52L225.71 178.61 M191.06 132.21L197.65 136.01 M197.65 136.01L197.65 124.92 M197.65 124.92L191.06 121.12 M191.06 121.12L191.06 132.21 M208.38 142.21L214.97 146.01 M214.97 146.01L214.97 134.92 M214.97 134.92L208.38 131.12 M208.38 131.12L208.38 142.21 M225.71 152.21L232.29 156.01 M232.29 156.01L232.29 144.92 M232.29 144.92L225.71 141.12 M225.71 141.12L225.71 152.21 M275.8 243.48L267.58 248.23 M267.58 248.23L267.58 237.15 M267.58 237.15L275.8 232.4 M275.8 232.4L275.8 243.48 M254.15 255.98L245.93 260.73 M245.93 260.73L245.93 249.65 M245.93 249.65L254.15 244.9 M254.15 244.9L254.15 255.98 M275.8 217.08L267.58 221.83 M267.58 221.83L267.58 210.75 M267.58 210.75L275.8 206 M275.8 206L275.8 217.08 M254.15 229.58L245.93 234.33 M245.93 234.33L245.93 223.25 M245.93 223.25L254.15 218.5 M254.15 218.5L254.15 229.58 M275.8 190.68L267.58 195.43 M267.58 195.43L267.58 184.34 M267.58 184.34L275.8 179.59 M275.8 179.59L275.8 190.68 M254.15 203.18L245.93 207.93 M245.93 207.93L245.93 196.84 M245.93 196.84L254.15 192.09 M254.15 192.09L254.15 203.18 M275.8 164.28L267.58 169.03 M267.58 169.03L267.58 157.94 M267.58 157.94L275.8 153.19 M275.8 153.19L275.8 164.28 M254.15 176.78L245.93 181.53 M245.93 181.53L245.93 170.44 M245.93 170.44L254.15 165.69 M254.15 165.69L254.15 176.78 M275.8 137.88L267.58 142.63 M267.58 142.63L267.58 131.55 M267.58 131.55L275.8 126.8 M275.8 126.8L275.8 137.88 M254.15 150.38L245.93 155.13 M245.93 155.13L245.93 144.05 M245.93 144.05L254.15 139.3 M254.15 139.3L254.15 150.38" />
  </g>
  <g data-building="right">
    <path class="structure" d="M333.61 154.5L382.11 182.5 M382.11 182.5L345.74 203.5 M345.74 203.5L297.24 175.5 M297.24 175.5L333.61 154.5 M382.11 182.5L382.11 280.5 M345.74 203.5L345.74 301.5 M297.24 175.5L297.24 273.5 M382.11 280.5L345.74 301.5 M345.74 301.5L297.24 273.5" />
    <path class="windows" opacity=".55" stroke-width=".65" d="M303.79 270.42L313 275.74 M313 275.74L313 265.45 M313 265.45L303.79 260.13 M303.79 260.13L303.79 270.42 M328.03 284.42L337.25 289.74 M337.25 289.74L337.25 279.45 M337.25 279.45L328.03 274.13 M328.03 274.13L328.03 284.42 M303.79 245.92L313 251.24 M313 251.24L313 240.95 M313 240.95L303.79 235.63 M303.79 235.63L303.79 245.92 M328.03 259.92L337.25 265.24 M337.25 265.24L337.25 254.95 M337.25 254.95L328.03 249.63 M328.03 249.63L328.03 259.92 M303.79 221.42L313 226.74 M313 226.74L313 216.45 M313 216.45L303.79 211.13 M303.79 211.13L303.79 221.42 M328.03 235.42L337.25 240.74 M337.25 240.74L337.25 230.45 M337.25 230.45L328.03 225.13 M328.03 225.13L328.03 235.42 M303.79 196.92L313 202.24 M313 202.24L313 191.95 M313 191.95L303.79 186.63 M303.79 186.63L303.79 196.92 M328.03 210.92L337.25 216.24 M337.25 216.24L337.25 205.95 M337.25 205.95L328.03 200.63 M328.03 200.63L328.03 210.92 M377.2 276.48L370.29 280.46 M370.29 280.46L370.29 270.18 M370.29 270.18L377.2 266.19 M377.2 266.19L377.2 276.48 M359.01 286.98L352.1 290.96 M352.1 290.96L352.1 280.68 M352.1 280.68L359.01 276.69 M359.01 276.69L359.01 286.98 M377.2 251.98L370.29 255.96 M370.29 255.96L370.29 245.67 M370.29 245.67L377.2 241.69 M377.2 241.69L377.2 251.98 M359.01 262.48L352.1 266.46 M352.1 266.46L352.1 256.18 M352.1 256.18L359.01 252.19 M359.01 252.19L359.01 262.48 M377.2 227.48L370.29 231.46 M370.29 231.46L370.29 221.17 M370.29 221.17L377.2 217.19 M377.2 217.19L377.2 227.48 M359.01 237.98L352.1 241.96 M352.1 241.96L352.1 231.67 M352.1 231.67L359.01 227.69 M359.01 227.69L359.01 237.98 M377.2 202.98L370.29 206.96 M370.29 206.96L370.29 196.67 M370.29 196.67L377.2 192.69 M377.2 192.69L377.2 202.98 M359.01 213.48L352.1 217.46 M352.1 217.46L352.1 207.17 M352.1 207.17L359.01 203.19 M359.01 203.19L359.01 213.48" />
  </g>
</svg>
