<svg xmlns="http://www.w3.org/2000/svg" viewBox="0 0 460 510" fill="none" stroke="currentColor" stroke-width="1.15" stroke-linecap="round" stroke-linejoin="round">
  <g class="contours" opacity=".35" stroke-width=".7"><path d="M25 484c80-45 139-7 202-25s133-16 238-55M4 501c91-43 157-4 230-22s156-25 240-53M76 459c52-23 100 1 156-17s135-5 223-58" /></g>
  <g class="botanical"><path d="M390 513Q278 331 199 96M279 314 119 252M301 358l114-147M246 237 326 102" />
  <path d="M211 131l-62-36m62 36 30-60" />
  <path d="M218 150l-62-36m62 36 30-60" />
  <path d="M225 169l-62-36m62 36 30-60" />
  <path d="M232 188l-62-36m62 36 30-60" />
  <path d="M239 207l-62-36m62 36 30-60" />
  <path d="M246 226l-62-36m62 36 30-60" />
  <path d="M253 245l-62-36m62 36 30-60" />
  <path d="M260 264l-62-36m62 36 30-60" />
  <path d="M267 283l-62-36m62 36 30-60" />
  <path d="M274 302l-62-36m62 36 30-60" />
  <path d="M149 264l-10-43m10 43-43 17M393 240l-32-12m32 12 15-38" />
  <path d="M168 271l-10-43m10 43-43 17M380 257l-32-12m32 12 15-38" />
  <path d="M187 278l-10-43m10 43-43 17M367 274l-32-12m32 12 15-38" />
  <path d="M206 285l-10-43m10 43-43 17M354 291l-32-12m32 12 15-38" />
  <path d="M225 292l-10-43m10 43-43 17M341 308l-32-12m32 12 15-38" />
  <path d="M244 299l-10-43m10 43-43 17M328 325l-32-12m32 12 15-38" />
  <path d="M263 306l-10-43m10 43-43 17M315 342l-32-12m32 12 15-38" />
  <path d="M341 400c-49-8-58 44-22 72 45-5 60-51 22-72Zm-17 8 23 10-31 9 30 10-23 10 14 13M180 105l18-48 20 58" />
  </g>
</svg>
