<svg xmlns="http://www.w3.org/2000/svg" viewBox="0 0 460 510" fill="none" stroke="currentColor" stroke-width="1.15" stroke-linecap="round" stroke-linejoin="round">
  <!-- Generated by generators/tropical.mjs; edit the scene, then pnpm artwork:generate. -->
  <g class="contours" opacity=".35" stroke-width=".7"><path d="M24 474Q104 440 176 465T328 457 M66 493Q155 471 229 487T434 463 M18 453Q59 434 94 445" /></g>
  <g class="botanical">
    <g class="stems"><path d="M400 513 Q300 348 256 192 M350.082 424.556 Q287 379 242 355 M314 350.25 Q325 302 354 270 M285.03 280.066 Q237 281 204 262 M351 513 Q253 420 102 395" /></g>
    <g class="leaves" fill="currentColor" fill-opacity=".08">
      <path d="M256 192 C228.893 187.842 195.518 147.092 209.123 101.944 C216.499 80.683 217.138 64.273 217.453 55.332 C223.915 65.313 233.39 75.919 252.684 92.608 C280.369 126.111 278.085 176.918 256 192 Z" />
      <path d="M242 355 C223.553 370.548 181.059 369.305 164.094 334.474 C156.682 317.431 147.953 307.618 143.176 302.294 C152.565 303.731 164.094 303.534 184.847 300.322 C219.929 301.182 246.776 331.764 242 355 Z" />
      <path d="M354 270 C342.954 246.926 355.775 203.025 396.347 194.07 C415.957 190.613 428.459 183.981 435.254 180.341 C431.221 189.749 428.295 201.794 425.977 224.188 C415.563 260.473 376.696 280.77 354 270 Z" />
      <path d="M204 262 C185.697 275.832 143.804 272.275 127.33 238.038 C120.146 221.336 111.609 211.471 106.938 206.116 C116.185 208.013 127.555 208.467 148.042 206.554 C182.629 209.332 208.879 240.058 204 262 Z" />
    </g>
    <g class="midribs"><path d="M256 192 L217.453 55.332 M242 355 L143.176 302.294 M354 270 L435.254 180.341 M204 262 L106.938 206.116" /></g>
    <g class="veins" stroke-width=".65" opacity=".6"><path d="M249.061 167.4 Q238.471 158.584 228.47 148.126 M249.061 167.4 Q253.485 154.349 256.547 140.207 M243.665 148.266 Q233.074 139.45 220.071 129.839 M243.665 148.266 Q248.088 135.215 254.153 120.226 M238.268 129.133 Q227.677 120.317 218.878 109.52 M238.268 129.133 Q242.692 116.082 244.552 102.279 M232.872 109.999 Q222.281 101.183 217.685 89.201 M232.872 109.999 Q237.295 96.948 234.952 84.331 M224.212 345.513 Q213.012 347.473 201.252 348.103 M224.212 345.513 Q219.6 335.12 213.572 325.003 M210.376 338.134 Q199.176 340.094 186.099 343.195 M210.376 338.134 Q205.765 327.741 201.054 315.154 M196.541 330.755 Q185.341 332.715 174.108 332.357 M196.541 330.755 Q191.929 320.362 185.374 311.234 M182.706 323.376 Q171.506 325.336 162.118 321.519 M182.706 323.376 Q178.094 312.984 169.694 307.314 M368.626 253.861 Q369.643 241.719 372.185 229.327 M368.626 253.861 Q380.609 251.658 392.693 247.912 M380.001 241.309 Q381.018 229.167 381.367 214.787 M380.001 241.309 Q391.985 239.105 406.261 237.347 M391.377 228.757 Q392.394 216.615 395.813 205.017 M391.377 228.757 Q403.36 226.553 414.566 222.012 M402.752 216.204 Q403.769 204.062 410.26 195.248 M402.752 216.204 Q414.736 214.001 422.871 206.677 M186.529 251.941 Q175.471 253.19 163.87 253.136 M186.529 251.941 Q182.057 241.75 176.187 231.745 M172.94 244.117 Q161.882 245.366 148.964 247.601 M172.94 244.117 Q168.468 233.927 163.915 221.633 M159.352 236.293 Q148.294 237.542 137.22 236.574 M159.352 236.293 Q154.88 226.103 148.482 217.012 M145.763 228.47 Q134.705 229.719 125.475 225.547 M145.763 228.47 Q141.291 218.279 133.05 212.392" /></g>
    <g class="fern" stroke-width=".85"><path d="M303.116 473.817 C300.371 478.992 288.218 487.03 278.363 483.366 C285.393 478.832 296.293 472.578 303.116 473.817 Z M300.464 471.97 C304.365 467.601 307.688 453.414 300.833 445.442 C299.019 453.608 296.935 466.001 300.464 471.97 Z M288.258 463.849 C285.014 470.643 269.845 481.626 256.99 477.457 C265.77 471.253 279.428 462.628 288.258 463.849 Z M285.521 462.11 C290.293 456.287 293.79 437.888 284.553 428.023 C282.668 438.608 280.664 454.636 285.521 462.11 Z M272.932 454.48 C269.446 462.647 252.113 476.342 236.756 472.065 C246.797 464.319 262.466 453.478 272.932 454.48 Z M270.111 452.849 C275.447 445.751 278.659 423.895 267.286 412.725 C265.587 425.292 264.018 444.281 270.111 452.849 Z M257.14 445.709 C253.658 454.906 235.111 470.854 217.925 466.828 C228.677 457.796 245.515 445.083 257.14 445.709 Z M254.234 444.187 C259.812 436.089 262.363 411.761 249.268 399.925 C247.965 413.907 247.1 434.987 254.234 444.187 Z M240.881 437.538 C237.621 447.342 218.836 464.882 200.621 461.394 C211.521 451.45 228.65 437.38 240.881 437.538 Z M237.891 436.124 C243.4 427.384 245.035 401.735 230.78 389.87 C230.012 404.604 230.007 426.772 237.891 436.124 Z M224.155 429.965 C221.288 439.906 203.198 458.213 184.832 455.456 C195.337 445.068 211.91 430.299 224.155 429.965 Z M221.08 428.66 C226.242 419.693 226.849 393.964 212.111 382.664 C211.933 397.438 212.817 419.618 221.08 428.66 Z M206.962 422.992 C204.601 432.581 188.034 450.721 170.413 448.782 C180.043 438.479 195.296 423.771 206.962 422.992 Z M203.803 421.795 C208.391 413.049 208.007 388.486 193.527 378.259 C193.91 392.357 195.583 413.48 203.803 421.795 Z M189.302 416.617 C187.499 425.382 173.131 442.383 157.109 441.241 C165.469 431.577 178.767 417.729 189.302 416.617 Z M186.059 415.529 C189.909 407.451 188.711 385.224 175.245 376.467 C176.081 389.218 178.328 408.285 186.059 415.529 Z M171.176 410.842 C169.921 418.356 158.239 433.277 144.573 432.816 C151.377 424.328 162.248 412.123 171.176 410.842 Z M167.848 409.861 C170.868 402.867 169.143 383.996 157.41 376.973 C158.525 387.794 161.042 403.944 167.848 409.861 Z M152.582 405.665 C151.815 411.578 143.102 423.583 132.398 423.612 C137.479 416.778 145.635 406.922 152.582 405.665 Z M149.17 404.793 C151.334 399.237 149.451 384.524 140.074 379.362 C141.253 387.796 143.679 400.357 149.17 404.793 Z M133.522 401.087 C133.14 405.15 127.472 413.569 120.153 413.847 C123.462 409.051 128.802 402.114 133.522 401.087 Z M130.026 400.324 C131.372 396.472 129.731 386.456 123.195 383.152 C124.204 388.89 126.164 397.422 130.026 400.324 Z M113.995 397.109 C113.871 399.185 111.129 403.573 107.405 403.842 C109.008 401.341 111.608 397.714 113.995 397.109 Z M110.414 396.453 C111.034 394.468 110.025 389.393 106.637 387.822 C107.25 390.728 108.397 395.042 110.414 396.453 Z" /><path opacity=".55" stroke-width=".65" d="M303.116 473.817 Q292.633 479.477 278.363 483.366 M300.464 471.97 Q302.136 460.175 300.833 445.442 M288.258 463.849 Q275.103 471.687 256.99 477.457 M285.521 462.11 Q287.027 446.872 284.553 428.023 M272.932 454.48 Q257.818 464.368 236.756 472.065 M270.111 452.849 Q271.133 434.816 267.286 412.725 M257.14 445.709 Q240.873 457.345 217.925 466.828 M254.234 444.187 Q254.538 424.189 249.268 399.925 M240.881 437.538 Q224.304 450.452 200.621 461.394 M237.891 436.124 Q237.352 415.117 230.78 389.87 M224.155 429.965 Q208.088 443.554 184.832 455.456 M221.08 428.66 Q219.699 407.663 212.111 382.664 M206.962 422.992 Q192.148 436.556 170.413 448.782 M203.803 421.795 Q201.7 401.819 193.527 378.259 M189.302 416.617 Q176.362 429.415 157.109 441.241 M186.059 415.529 Q183.462 397.515 175.245 376.467 M171.176 410.842 Q160.575 422.141 144.573 432.816 M167.848 409.861 Q165.068 394.619 157.41 376.973 M152.582 405.665 Q144.612 414.806 132.398 423.612 M149.17 404.793 Q146.564 392.949 140.074 379.362 M133.522 401.087 Q128.292 407.53 120.153 413.847 M130.026 400.324 Q127.959 392.287 123.195 383.152 M113.995 397.109 Q111.443 400.483 107.405 403.842 M110.414 396.453 Q109.222 392.394 106.637 387.822" /></g>
  </g>
</svg>
